<svg width="28" height="24" viewBox="0 0 28 24" fill="none" xmlns="http://www.w3.org/2000/svg">
<g id="Group 1261154072">
<path id="Vector" d="M2.40175 10.8002H26.3987C26.7169 10.8002 27.0221 10.9266 27.2471 11.1516C27.4722 11.3766 27.5986 11.6818 27.5986 12C27.5986 12.3182 27.4722 12.6234 27.2471 12.8484C27.0221 13.0735 26.7169 13.1999 26.3987 13.1999H2.40175C2.08353 13.1999 1.77835 13.0735 1.55333 12.8484C1.32832 12.6234 1.2019 12.3182 1.2019 12C1.2019 11.6818 1.32832 11.3766 1.55333 11.1516C1.77835 10.9266 2.08353 10.8002 2.40175 10.8002Z" fill="#333333"/>
<path id="Vector_2" d="M2.89858 12L12.8501 21.9491C13.0754 22.1744 13.202 22.48 13.202 22.7986C13.202 23.1173 13.0754 23.4228 12.8501 23.6481C12.6248 23.8734 12.3193 24 12.0006 24C11.682 24 11.3764 23.8734 11.1511 23.6481L0.3525 12.8495C0.240763 12.738 0.152111 12.6056 0.0916236 12.4599C0.0311357 12.3141 0 12.1578 0 12C0 11.8422 0.0311357 11.6859 0.0916236 11.5401C0.152111 11.3944 0.240763 11.262 0.3525 11.1505L11.1511 0.351871C11.3764 0.126572 11.682 0 12.0006 0C12.3193 0 12.6248 0.126572 12.8501 0.351871C13.0754 0.577171 13.202 0.882743 13.202 1.20136C13.202 1.51999 13.0754 1.82556 12.8501 2.05086L2.89858 12Z" fill="#333333"/>
</g>
</svg>
