<svg width="26" height="26" viewBox="0 0 26 26" fill="none" xmlns="http://www.w3.org/2000/svg">
<path d="M25.9978 12.9984V12.9919C25.9978 9.14513 24.3231 5.69053 21.6638 3.31488L21.6508 3.30405C21.6179 3.26864 21.5812 3.23703 21.5414 3.2098L21.5392 3.20872C19.1773 1.1348 16.1399 -0.00610074 12.9967 2.45365e-05C9.71236 2.45365e-05 6.71394 1.2198 4.4283 3.23255L4.44238 3.22063C4.41483 3.24153 4.38943 3.26512 4.36656 3.29105C2.99249 4.50779 1.89264 6.0037 1.13985 7.67759C0.38707 9.35149 -0.00145901 11.1662 4.11704e-06 13.0016C4.11704e-06 16.8473 1.67253 20.3019 4.32972 22.6786L4.34272 22.6895C4.37713 22.7285 4.41563 22.7637 4.45755 22.7945L4.45971 22.7956C6.82101 24.8665 9.85609 26.0057 12.9967 26C16.1521 26.0048 19.2002 24.8551 21.5663 22.7675L21.5522 22.7794C22.9501 21.564 24.0706 20.0625 24.838 18.3765C25.6053 16.6906 26.0016 14.8594 26 13.007V12.9995L25.9978 12.9984ZM21.1644 21.4534C20.5205 20.9325 19.828 20.4747 19.0965 20.0863L19.0261 20.0517C19.6901 18.1375 20.0898 15.9308 20.1277 13.6353V13.618H24.7434C24.5878 16.5877 23.3096 19.3874 21.1676 21.4502L21.1644 21.4534ZM13.6185 19.8231C15.0083 19.8978 16.3071 20.2033 17.5052 20.7005L17.4272 20.6724C16.4675 22.8606 15.1167 24.3642 13.6185 24.6946V19.8231ZM13.6185 18.5838V13.618H18.8918C18.8499 15.6744 18.4934 17.7122 17.8345 19.6606L17.8768 19.5187C16.5319 18.9659 15.1015 18.65 13.6489 18.5849L13.6196 18.5838H13.6185ZM13.6185 12.3787V7.41295C15.1103 7.34486 16.579 7.01828 17.9591 6.44774L17.8735 6.47916C18.4747 8.233 18.8441 10.2544 18.8918 12.356V12.3787H13.6185ZM13.6185 6.17367V1.3043C15.1167 1.6347 16.4675 3.13181 17.4272 5.32654C16.3071 5.79236 15.0083 6.09676 13.6499 6.17259L13.6185 6.17367ZM16.7101 1.84053C17.9865 2.2663 19.1803 2.90828 20.2393 3.73845L20.2144 3.71895C19.7345 4.09593 19.1961 4.45125 18.6285 4.75998L18.5679 4.79032C18.1092 3.70782 17.4786 2.70658 16.7004 1.82536L16.7101 1.83728V1.84053ZM12.3771 1.30755V6.17367C11.0409 6.10551 9.72634 5.80872 8.49046 5.29621L8.56845 5.32438C9.53254 3.13614 10.8812 1.63362 12.3793 1.30322L12.3771 1.30755ZM7.42888 4.78707C6.84169 4.47113 6.28219 4.10622 5.75636 3.6962L5.78235 3.7157C6.81049 2.9099 7.96695 2.28294 9.20323 1.86111L9.28556 1.83619C8.52774 2.69354 7.91025 3.66534 7.45596 4.71557L7.42888 4.78707ZM12.3793 7.41187V12.3777H7.10608C7.15374 10.2533 7.52312 8.23192 8.16657 6.33617L8.12432 6.47808C9.46869 7.02998 10.8983 7.34552 12.3501 7.41079L12.3793 7.41187ZM12.3793 13.6169V18.5827C10.8875 18.6508 9.41883 18.9774 8.03875 19.5479L8.12432 19.5165C7.52312 17.7638 7.15374 15.7413 7.10608 13.6397V13.6169H12.3793ZM12.3793 19.822V24.6914C10.8812 24.361 9.53037 22.8639 8.57062 20.6691C9.69069 20.2033 10.9895 19.9 12.3479 19.8242L12.3793 19.822ZM9.29206 24.1551C8.01595 23.7306 6.8222 23.0901 5.76286 22.2616L5.78885 22.2811C6.26873 21.9041 6.8071 21.5488 7.37472 21.24L7.43538 21.2097C7.89022 22.2926 8.52085 23.293 9.30181 24.1703L9.29206 24.1595V24.1551ZM18.569 21.2086C19.1972 21.5498 19.7356 21.9041 20.2415 22.2995L20.2155 22.28C19.1873 23.0858 18.0309 23.7127 16.7946 24.1346L16.7123 24.1595C17.4701 23.3025 18.0876 22.3311 18.5419 21.2812L18.569 21.2108V21.2086ZM24.7434 12.3787H20.1277C20.0945 10.1374 19.7077 7.91528 18.9817 5.79452L19.0261 5.94402C19.7913 5.5411 20.5157 5.06513 21.1893 4.52274L21.1633 4.54224C23.3008 6.59727 24.5795 9.38652 24.7413 12.3473L24.7423 12.3777L24.7434 12.3787ZM4.83343 4.54333C5.45738 5.05031 6.15824 5.51503 6.90134 5.91043L6.97175 5.9451C6.30773 7.85927 5.90801 10.0659 5.8701 12.3614V12.3787H1.25332C1.40897 9.40902 2.68715 6.60938 4.8291 4.54658L4.83343 4.54333ZM1.2544 13.618H5.8701C5.9033 15.8594 6.29009 18.0815 7.01617 20.2022L6.97175 20.0527C6.15824 20.485 5.45846 20.9497 4.80852 21.474L4.83452 21.4545C2.69699 19.3995 1.41836 16.6102 1.25657 13.6494L1.25548 13.6191L1.2544 13.618Z" fill="#111535"/>
</svg>
