<svg width="47" height="39" viewBox="0 0 47 39" fill="none" xmlns="http://www.w3.org/2000/svg">
<path d="M1 38L0.999999 1" stroke="#999999" stroke-width="2" stroke-linecap="round"/>
<path d="M43.2866 27.0342L46.751 30.4969C46.9126 30.6641 47.002 30.8882 47 31.1208C46.9979 31.3533 46.9047 31.5758 46.7402 31.7402C46.5758 31.9047 46.3533 31.9979 46.1208 32C45.8882 32.002 45.6641 31.9126 45.4969 31.751L42.0324 28.2866C39.7685 30.2262 36.8413 31.2137 33.865 31.0416C30.8888 30.8696 28.0948 29.5514 26.0695 27.3638C24.0441 25.1762 22.9448 22.2892 23.0021 19.3085C23.0595 16.3278 24.2691 13.4852 26.3772 11.3772C28.4852 9.26914 31.3278 8.05951 34.3085 8.00214C37.2892 7.94476 40.1762 9.04409 42.3638 11.0695C44.5514 13.0948 45.8696 15.8888 46.0416 18.865C46.2137 21.8413 45.2262 24.7685 43.2866 27.0324V27.0342ZM34.5306 29.2871C37.1181 29.2871 39.5997 28.2591 41.4294 26.4294C43.2591 24.5997 44.2871 22.1181 44.2871 19.5306C44.2871 16.943 43.2591 14.4614 41.4294 12.6317C39.5997 10.802 37.1181 9.77405 34.5306 9.77405C31.943 9.77405 29.4614 10.802 27.6317 12.6317C25.802 14.4614 24.7741 16.943 24.7741 19.5306C24.7741 22.1181 25.802 24.5997 27.6317 26.4294C29.4614 28.2591 31.943 29.2871 34.5306 29.2871Z" fill="#222222"/>
</svg>
